<?xml version="1.0"?>
<svg version="1.1" xmlns="http://www.w3.org/2000/svg" width="400" height="200" style="border: dashed 2px #aaa"><path fill="#" d="M18.5,112.88l0-15.12l-2.38-0.56l0-1.54l5.32-0.14l2.94,0c4.2,0,6.44,2.24,6.44,5.74c0,4.34-2.8,6.58-7.56,6.58l-1.82,0l0,5.04l2.38,0.56l0,1.68l-7.7,0l0-1.68z M21.44,105.6l1.82,0c3.08,0,4.62-1.4,4.62-3.92c0-2.24-1.26-3.92-3.64-3.92l-2.8,0l0,7.84z M39.1808,100.28l0.252,2.044c0.7-0.784,2.324-2.324,4.228-2.324c1.4,0,2.52,0.42,2.52,0.42l-0.14,4.06l-1.82,0l-0.42-2.1c-2.1,0-3.444,1.372-4.06,2.184l0,8.316l2.8,0.7l0,1.54l-7.98,0l0-1.54l2.38-0.7l0-10.36l-2.38-0.56l0-1.54z M62.1016,108.12l-9.66,0c0,3.08,1.652,5.04,4.06,5.04c2.8,0,4.704-1.54,4.704-1.54l0.98,1.456s-2.604,2.324-5.964,2.324c-4.48,0-6.72-2.94-6.72-7.56c0-4.48,2.8-7.84,6.86-7.84s5.88,2.38,5.88,6.58c0,0.7-0.14,1.484-0.14,1.54z M52.5536,106.02l6.72,0c0-2.1-0.812-3.836-3.052-3.836s-3.5,1.736-3.668,3.836z M68.6704,110.64l0.308,2.408s0.84,0.252,2.352,0.252c1.68,0,3.164-0.476,3.164-2.212c0-3.024-7.812-1.624-7.812-6.72c0-2.912,2.24-4.368,5.124-4.368c2.212,0,4.788,0.84,4.788,0.84l-0.084,3.78l-1.82,0l-0.448-2.184s-0.868-0.336-2.268-0.336c-1.428,0-2.492,0.448-2.492,1.876c0,2.996,7.812,1.848,7.812,6.636c0,3.22-2.8,4.788-6.16,4.788c-2.576,0-4.424-0.616-4.424-0.616l0-4.144l1.96,0z M83.7232,110.64l0.308,2.408s0.84,0.252,2.352,0.252c1.68,0,3.164-0.476,3.164-2.212c0-3.024-7.812-1.624-7.812-6.72c0-2.912,2.24-4.368,5.124-4.368c2.212,0,4.788,0.84,4.788,0.84l-0.084,3.78l-1.82,0l-0.448-2.184s-0.868-0.336-2.268-0.336c-1.428,0-2.492,0.448-2.492,1.876c0,2.996,7.812,1.848,7.812,6.636c0,3.22-2.8,4.788-6.16,4.788c-2.576,0-4.424-0.616-4.424-0.616l0-4.144l1.96,0z M103.984,113.58l0,1.54l-7.756,0l0-1.54l2.38-0.7l0-17.08l-2.38-0.56l0-1.54l5.236-0.14l0,19.32z M110.9448,102.24l3.36,9.8l3.08-9.66l-1.96-0.42l0-1.54l6.636-0.14l0,1.68l-1.82,0.28l-3.976,11.088c-1.484,3.892-2.94,8.512-7.56,8.512c-0.7,0-1.792-0.14-1.792-0.14l0.252-1.96l1.4,0c1.96,0,3.22-1.848,4.452-4.564l-5.012-12.796l-1.68-0.42l0-1.54l6.58-0.14l0,1.68z"/><path fill="#" d=""/></svg>
