<svg width="1578px" height="251.6px" viewBox="115 20 258 131" xmlns="http://www.w3.org/2000/svg" style="background: none;" preserveAspectRatio="xMidYMid"><defs><filter id="editing-hole" x="-100%" y="-100%" width="300%" height="300%"><feFlood flood-color="#bbcedd" result="black"></feFlood><feMorphology operator="dilate" radius="2" in="SourceGraphic" result="erode"></feMorphology><feGaussianBlur in="erode" stdDeviation="4" result="blur"></feGaussianBlur><feOffset in="blur" dx="2" dy="2" result="offset"></feOffset><feComposite operator="atop" in="offset" in2="black" result="merge"></feComposite><feComposite operator="in" in="merge" in2="SourceGraphic" result="inner-shadow"></feComposite></filter></defs><g filter="url(#editing-hole)"><g transform="translate(87.49504399299622, 126.25082302093506)"><path d="M27.70-27.90L27.70-27.90L27.70-27.90Q25.80-27.90 22.30-28.20L22.30-28.20L22.30-5L32-3L32-3Q32.30-1.10 31.50 0.50L31.50 0.50L31.50 0.50Q22.50 0 17.30 0L17.30 0L17.30 0Q12.90 0 3.60 0.50L3.60 0.50L3.60 0.50Q3.30-1.40 3.80-3L3.80-3L3.80-3Q9.30-3.70 11.80-5L11.80-5L11.80-65L4.10-67L4.10-67Q3.80-68.90 4.60-70.50L4.60-70.50L4.60-70.50Q13.60-70 16.80-70L16.80-70L16.80-70Q20.10-70 24.50-70.45L24.50-70.45L24.50-70.45Q28.90-70.90 30.30-70.90L30.30-70.90L30.30-70.90Q42.70-70.90 49.75-65.40L49.75-65.40L49.75-65.40Q56.80-59.90 56.80-50.20L56.80-50.20L56.80-50.20Q56.80-44.30 54.30-39.90L54.30-39.90L54.30-39.90Q51.80-35.50 47.55-32.90L47.55-32.90L47.55-32.90Q43.30-30.30 38.30-29.10L38.30-29.10L38.30-29.10Q33.30-27.90 27.70-27.90ZM29.60-66.40L29.60-66.40L29.60-66.40Q26.10-66.40 22.30-65.50L22.30-65.50L22.30-33.10L22.30-33.10Q25.50-32.50 28.50-32.50L28.50-32.50L28.50-32.50Q36.60-32.50 41.35-36.85L41.35-36.85L41.35-36.85Q46.10-41.20 46.10-49.60L46.10-49.60L46.10-49.60Q46.10-57.20 41.40-61.80L41.40-61.80L41.40-61.80Q36.70-66.40 29.60-66.40ZM79.10-33.70L79.10-33.70L79.10-5L88.80-3L88.80-3Q89.10-1.10 88.30 0.50L88.30 0.50L88.30 0.50Q79.30 0 74.10 0L74.10 0L74.10 0Q70.10 0 61.90 0.50L61.90 0.50L61.90 0.50Q61.60-1.40 62.10-3L62.10-3L62.10-3Q67.70-4.20 69.10-5L69.10-5L69.10-44L60.80-44.80L60.80-44.80Q60.50-46.80 61.30-48.30L61.30-48.30L61.30-48.30Q69.60-49.50 75.30-51L75.30-51L75.30-51Q76.40-51 78.60-49.90L78.60-49.90L78.60-40.80L78.70-40.70L78.70-40.70Q86.10-51.70 93.90-51.70L93.90-51.70L93.90-51.70Q97.90-51.80 100.50-50.20L100.50-50.20L100.50-50.20Q100.80-42.80 98.50-35.20L98.50-35.20L98.50-35.20Q96-34.90 94-35.60L94-35.60L92.60-45.60L92.60-45.60Q84.30-45.60 79.10-33.70ZM146.10-26.70L115.90-27L115.90-25L115.90-25Q115.90-15 119.95-9.40L119.95-9.40L119.95-9.40Q124-3.80 131-3.80L131-3.80L131-3.80Q135.50-3.80 138.20-4.65L138.20-4.65L138.20-4.65Q140.90-5.50 145-8.30L145-8.30L145-8.30Q146.60-7.60 146.80-5.90L146.80-5.90L146.80-5.90Q139.90 1.60 130.70 1.70L130.70 1.70L130.70 1.70Q119.20 1.70 112.30-5.50L112.30-5.50L112.30-5.50Q105.40-12.70 105.30-25L105.30-25L105.30-25Q105.40-37.60 112.55-44.65L112.55-44.65L112.55-44.65Q119.70-51.70 130.20-51.70L130.20-51.70L130.20-51.70Q138.70-51.70 143.15-45.95L143.15-45.95L143.15-45.95Q147.60-40.20 147.60-30.40L147.60-30.40L147.60-30.40Q147.60-28.70 147.50-27.80L147.50-27.80L146.10-26.70ZM130.10-47.40L130.10-47.40L130.10-47.40Q125.40-47.40 121.45-43.15L121.45-43.15L121.45-43.15Q117.50-38.90 116.30-31.10L116.30-31.10L138.10-32.30L138.10-32.30Q138.10-40.30 136.35-43.85L136.35-43.85L136.35-43.85Q134.60-47.40 130.10-47.40ZM161.10-15L161.10-15L162.10-4.40L162.10-4.40Q165.40-2.60 171.20-2.60L171.20-2.60L171.20-2.60Q175.60-2.60 178.65-4.50L178.65-4.50L178.65-4.50Q181.70-6.40 181.70-10.20L181.70-10.20L181.70-10.20Q181.70-13.60 178.70-16.15L178.70-16.15L178.70-16.15Q175.70-18.70 168.40-22.10L168.40-22.10L168.40-22.10Q162.10-25 159.15-28.70L159.15-28.70L159.15-28.70Q156.20-32.40 156.20-38.20L156.20-38.20L156.20-38.20Q156.20-45 161.10-48.40L161.10-48.40L161.10-48.40Q166-51.80 173.90-51.80L173.90-51.80L173.90-51.80Q181.60-51.80 188.50-49L188.50-49L188.50-49Q188.50-48.60 188.55-47.90L188.55-47.90L188.55-47.90Q188.60-47.20 188.60-46.80L188.60-46.80L188.60-46.80Q188.60-40.90 186.70-35.30L186.70-35.30L186.70-35.30Q185.70-35.10 185.20-35.10L185.20-35.10L185.20-35.10Q183.70-35.10 182.20-35.70L182.20-35.70L180.60-46.50L180.60-46.50Q177.50-47.40 174.20-47.40L174.20-47.40L174.20-47.40Q170.10-47.40 167.35-45.70L167.35-45.70L167.35-45.70Q164.60-44 164.50-40.20L164.50-40.20L164.50-40.20Q164.50-36.80 167-34.40L167-34.40L167-34.40Q169.50-32 176.40-28.70L176.40-28.70L176.40-28.70Q184.50-24.80 187.70-21.30L187.70-21.30L187.70-21.30Q190.90-17.80 190.90-12.50L190.90-12.50L190.90-12.50Q190.90-5.70 185.65-1.85L185.65-1.85L185.65-1.85Q180.40 2 171.90 2L171.90 2L171.90 2Q161.40 2.20 155-2L155-2L155-3.70L155-3.70Q154.90-10 156.80-15.40L156.80-15.40L156.80-15.40Q157.40-15.50 157.80-15.50L157.80-15.50L157.80-15.50Q159.60-15.50 161.10-15ZM204.30-15L204.30-15L205.30-4.40L205.30-4.40Q208.60-2.60 214.40-2.60L214.40-2.60L214.40-2.60Q218.80-2.60 221.85-4.50L221.85-4.50L221.85-4.50Q224.90-6.40 224.90-10.20L224.90-10.20L224.90-10.20Q224.90-13.60 221.90-16.15L221.90-16.15L221.90-16.15Q218.90-18.70 211.60-22.10L211.60-22.10L211.60-22.10Q205.30-25 202.35-28.70L202.35-28.70L202.35-28.70Q199.40-32.40 199.40-38.20L199.40-38.20L199.40-38.20Q199.40-45 204.30-48.40L204.30-48.40L204.30-48.40Q209.20-51.80 217.10-51.80L217.10-51.80L217.10-51.80Q224.80-51.80 231.70-49L231.70-49L231.70-49Q231.70-48.60 231.75-47.90L231.75-47.90L231.75-47.90Q231.80-47.20 231.80-46.80L231.80-46.80L231.80-46.80Q231.80-40.90 229.90-35.30L229.90-35.30L229.90-35.30Q228.90-35.10 228.40-35.10L228.40-35.10L228.40-35.10Q226.90-35.10 225.40-35.70L225.40-35.70L223.80-46.50L223.80-46.50Q220.70-47.40 217.40-47.40L217.40-47.40L217.40-47.40Q213.30-47.40 210.55-45.70L210.55-45.70L210.55-45.70Q207.80-44 207.70-40.20L207.70-40.20L207.70-40.20Q207.70-36.80 210.20-34.40L210.20-34.40L210.20-34.40Q212.70-32 219.60-28.70L219.60-28.70L219.60-28.70Q227.70-24.80 230.90-21.30L230.90-21.30L230.90-21.30Q234.10-17.80 234.10-12.50L234.10-12.50L234.10-12.50Q234.10-5.70 228.85-1.85L228.85-1.85L228.85-1.85Q223.60 2 215.10 2L215.10 2L215.10 2Q204.60 2.20 198.20-2L198.20-2L198.20-3.70L198.20-3.70Q198.10-10 200-15.40L200-15.40L200-15.40Q200.60-15.50 201-15.50L201-15.50L201-15.50Q202.80-15.50 204.30-15ZM256.50-74.50L256.50-74.50L256.50-5L264.20-3L264.20-3Q264.50-1.10 263.70 0.50L263.70 0.50L263.70 0.50Q254.70 0 251.50 0L251.50 0L251.50 0Q248.60 0 239.30 0.50L239.30 0.50L239.30 0.50Q239-1.40 239.50-3L239.50-3L239.50-3Q245.10-4.40 246.50-5L246.50-5L246.50-68.60L238.20-69.40L238.20-69.40Q237.90-71.40 238.70-72.90L238.70-72.90L238.70-72.90Q247-74.10 252.70-75.60L252.70-75.60L252.70-75.60Q254.40-75.50 256.50-74.50ZM275.60 26.90L275.60 26.90L275.60 26.90Q270.60 19.50 269.90 14.10L269.90 14.10L269.90 14.10Q271.80 12.80 273.70 12.70L273.70 12.70L280.10 20.20L280.10 20.20Q285.70 14.70 291 0.40L291 0.40L272.80-45L265.10-47L265.10-47Q264.80-48.90 265.60-50.50L265.60-50.50L265.60-50.50Q274.60-50 277.40-50L277.40-50L277.40-50Q280.50-50 289.80-50.50L289.80-50.50L289.80-50.50Q290.10-48.60 289.60-47L289.60-47L289.60-47Q283.90-45.80 282.70-45L282.70-45L291-24.90L291-24.90Q295.20-14.80 296.10-9.40L296.10-9.40L296.40-9.40L296.40-9.40Q296.50-9.80 297.10-12.35L297.10-12.35L297.10-12.35Q297.70-14.90 298.40-17.30L298.40-17.30L298.40-17.30Q299.10-19.70 300.30-22.70L300.30-22.70L308.80-45L301.90-47L301.90-47Q301.60-48.90 302.40-50.50L302.40-50.50L302.40-50.50Q309.10-50 312.20-50L312.20-50L312.20-50Q315.70-50 321.90-50.50L321.90-50.50L321.90-50.50Q322.20-48.60 321.70-47L321.70-47L321.70-47Q315.90-45.80 314.80-45L314.80-45L295.20 4.70L295.20 4.70Q291.10 15.10 285.90 21.05L285.90 21.05L285.90 21.05Q280.70 27 275.60 26.90Z" fill="#ffffff"></path></g></g><style>text {
  font-size: 64px;
  font-family: Arial Black;
  dominant-baseline: central;
  text-anchor: middle;
}</style></svg>